<svg width="388" height="388" viewBox="0 0 388 388" fill="none" xmlns="http://www.w3.org/2000/svg">
<g clip-path="url(#clip0_1_279)">
<path d="M388 0H0V388H388V0Z" fill="white"/>
<path d="M388 0H0V388H388V0Z" fill="#CDDCEB"/>
<g filter="url(#filter0_i_1_279)">
<path d="M333.589 42.6641H54.4098V388.747H333.589V42.6641Z" fill="#FF7549"/>
</g>
<mask id="mask0_1_279" style="mask-type:alpha" maskUnits="userSpaceOnUse" x="54" y="42" width="280" height="347">
<path d="M333.589 42.6641H54.4092V388.747H333.589V42.6641Z" fill="#FF7549"/>
</mask>
<g mask="url(#mask0_1_279)">
<path opacity="0.24" d="M118.487 125.262C114.866 125.262 111.565 124.338 108.585 122.49C105.624 120.623 103.285 118.114 101.568 114.964C99.871 111.815 99.0223 108.382 99.0223 104.666C99.0223 100.762 99.9372 97.2543 101.767 94.1423C103.615 91.0302 106.048 88.6066 109.066 86.8713C112.083 85.1172 115.28 84.2402 118.656 84.2402C121.523 84.2402 124.287 84.9099 126.946 86.2492C129.605 87.5879 131.972 89.6343 134.047 92.3882L126.465 96.4622C125.333 95.1983 124.088 94.2556 122.73 93.6329C121.372 92.9916 119.977 92.671 118.543 92.671C116.638 92.671 114.837 93.1899 113.139 94.2272C111.461 95.2646 110.103 96.7076 109.066 98.5556C108.029 100.404 107.51 102.498 107.51 104.836C107.51 107.024 108.009 109.033 109.009 110.862C110.009 112.692 111.357 114.134 113.055 115.191C114.752 116.247 116.6 116.775 118.6 116.775C120.41 116.775 122.136 116.285 123.777 115.304C125.437 114.323 126.823 112.871 127.936 110.947H122.617V103.592H137.951C137.97 103.837 137.979 104.195 137.979 104.666C137.979 108.401 137.111 111.843 135.377 114.993C133.641 118.143 131.284 120.642 128.304 122.49C125.324 124.338 122.052 125.262 118.487 125.262ZM160.001 84.9195C162.132 84.9195 164.084 85.4662 165.857 86.5602C167.63 87.6542 169.026 89.125 170.044 90.9736C171.082 92.8222 171.6 94.8402 171.6 97.0277C171.6 99.555 170.978 101.818 169.733 103.818C168.488 105.798 166.791 107.307 164.641 108.344L174.033 124.527H164.245L155.305 109.136H152.362V124.527H143.875V84.9195H160.001ZM158.983 100.649C159.718 100.649 160.397 100.46 161.019 100.084C161.661 99.687 162.17 99.1686 162.547 98.5273C162.924 97.8673 163.113 97.1597 163.113 96.4056C163.113 95.651 162.924 94.953 162.547 94.3122C162.17 93.6516 161.661 93.1332 161.019 92.7559C160.397 92.3599 159.718 92.1616 158.983 92.1616H152.362V100.649H158.983ZM200.494 84.9195L214.866 124.527H205.87L203.606 118.303H187.82L185.557 124.527H176.56L190.932 84.9195H200.494ZM200.494 109.816L195.685 96.6883L190.932 109.816H200.494ZM234.348 84.9195C236.479 84.9195 238.431 85.4759 240.204 86.5886C241.996 87.6825 243.411 89.1533 244.448 91.0019C245.485 92.85 246.004 94.8589 246.004 97.0277C246.004 99.2157 245.467 101.234 244.391 103.082C243.335 104.93 241.911 106.402 240.12 107.496C238.328 108.59 236.404 109.136 234.348 109.136H227.898V124.527H219.41V84.9195H234.348ZM233.386 100.649C234.122 100.649 234.801 100.46 235.423 100.084C236.064 99.687 236.574 99.1686 236.951 98.5273C237.328 97.8673 237.516 97.1597 237.516 96.4056C237.516 95.651 237.328 94.953 236.951 94.3122C236.574 93.6516 236.064 93.1332 235.423 92.7559C234.801 92.3599 234.122 92.1616 233.386 92.1616H227.898V100.649H233.386ZM281.858 84.9195V124.527H273.371V107.552H259.338V124.527H250.851V84.9195H259.338V99.0649H273.371V84.9195H281.858ZM290.048 84.9195H298.535V124.527H290.048V84.9195ZM323.929 125.262C320.402 125.262 317.149 124.338 314.169 122.49C311.189 120.642 308.822 118.152 307.068 115.021C305.332 111.872 304.465 108.439 304.465 104.723C304.465 100.989 305.332 97.5562 307.068 94.425C308.822 91.2755 311.189 88.7856 314.169 86.9562C317.149 85.1076 320.402 84.1836 323.929 84.1836C327.06 84.1836 329.974 84.9099 332.672 86.3619C335.388 87.8145 337.66 89.8043 339.49 92.3316L331.908 96.4056C330.889 95.2362 329.692 94.3213 328.315 93.6613C326.938 93.0012 325.476 92.671 323.929 92.671C321.949 92.671 320.11 93.2086 318.413 94.2839C316.734 95.3586 315.404 96.8203 314.424 98.6689C313.443 100.517 312.952 102.535 312.952 104.723C312.952 106.892 313.443 108.901 314.424 110.749C315.423 112.597 316.762 114.069 318.441 115.163C320.12 116.237 321.949 116.775 323.929 116.775C325.476 116.775 326.938 116.445 328.315 115.785C329.692 115.106 330.889 114.172 331.908 112.984L339.49 117.114C337.66 119.642 335.388 121.632 332.672 123.084C329.974 124.537 327.06 125.262 323.929 125.262ZM372.446 84.9195C376.03 84.9195 379.33 85.8152 382.348 87.6072C385.384 89.3799 387.789 91.7849 389.562 94.821C391.354 97.8389 392.25 101.14 392.25 104.723C392.25 108.307 391.354 111.617 389.562 114.653C387.789 117.671 385.384 120.076 382.348 121.868C379.33 123.64 376.03 124.527 372.446 124.527H359.319V84.9195H372.446ZM372.446 116.04C374.464 116.04 376.341 115.54 378.076 114.54C379.811 113.522 381.188 112.145 382.207 110.409C383.244 108.675 383.762 106.779 383.762 104.723C383.762 102.686 383.244 100.8 382.207 99.0649C381.188 97.3296 379.811 95.9529 378.076 94.9343C376.341 93.9157 374.464 93.4069 372.446 93.4069H367.806V116.04H372.446ZM398.164 84.9195H423.4V93.4069H406.652V99.0649H419.553V107.552H406.652V116.04H423.4V124.527H398.164V84.9195ZM444.09 125.262C441.865 125.262 439.724 124.904 437.668 124.188C435.612 123.471 433.82 122.443 432.293 121.104C430.784 119.765 429.699 118.19 429.039 116.379L437.017 113.437C437.206 114.002 437.63 114.54 438.29 115.049C438.97 115.559 439.809 115.973 440.809 116.294C441.827 116.615 442.921 116.775 444.09 116.775C445.222 116.775 446.288 116.615 447.287 116.294C448.306 115.955 449.116 115.492 449.72 114.908C450.342 114.304 450.653 113.626 450.653 112.871C450.653 111.777 450.022 110.919 448.758 110.297C447.513 109.674 445.957 109.231 444.09 108.967C439.413 108.288 435.735 106.968 433.057 105.006C430.379 103.044 429.039 100.234 429.039 96.575C429.039 94.1797 429.728 92.0393 431.104 90.1532C432.482 88.2672 434.32 86.8055 436.621 85.7682C438.941 84.7116 441.431 84.1836 444.09 84.1836C446.335 84.1836 448.485 84.5422 450.541 85.2589C452.596 85.9756 454.378 87.0129 455.888 88.3709C457.415 89.7102 458.5 91.2943 459.141 93.1236L451.163 96.0096C450.974 95.4436 450.541 94.9156 449.861 94.425C449.183 93.9157 448.324 93.5106 447.287 93.2086C446.25 92.8879 445.127 92.7276 443.921 92.7276C442.845 92.7276 441.818 92.8976 440.836 93.2369C439.856 93.5763 439.054 94.0477 438.432 94.6516C437.829 95.2362 437.527 95.8776 437.527 96.575C437.527 97.537 437.8 98.2729 438.347 98.7822C438.913 99.2723 439.611 99.6213 440.44 99.8287C441.27 100.036 442.487 100.253 444.09 100.48C446.938 100.894 449.484 101.621 451.729 102.658C453.992 103.695 455.793 105.072 457.132 106.789C458.472 108.505 459.141 110.532 459.141 112.871C459.141 115.266 458.452 117.407 457.076 119.293C455.718 121.179 453.888 122.65 451.587 123.707C449.286 124.744 446.787 125.262 444.09 125.262ZM482.294 125.262C478.673 125.262 475.372 124.338 472.392 122.49C469.431 120.623 467.092 118.114 465.376 114.964C463.678 111.815 462.829 108.382 462.829 104.666C462.829 100.762 463.744 97.2543 465.574 94.1423C467.422 91.0302 469.855 88.6066 472.873 86.8713C475.891 85.1172 479.088 84.2402 482.464 84.2402C485.33 84.2402 488.094 84.9099 490.753 86.2492C493.413 87.5879 495.78 89.6343 497.854 92.3882L490.272 96.4622C489.14 95.1983 487.896 94.2556 486.538 93.6329C485.18 92.9916 483.784 92.671 482.35 92.671C480.446 92.671 478.645 93.1899 476.947 94.2272C475.269 95.2646 473.91 96.7076 472.873 98.5556C471.836 100.404 471.317 102.498 471.317 104.836C471.317 107.024 471.817 109.033 472.816 110.862C473.816 112.692 475.164 114.134 476.862 115.191C478.56 116.247 480.408 116.775 482.407 116.775C484.218 116.775 485.943 116.285 487.585 115.304C489.244 114.323 490.63 112.871 491.743 110.947H486.424V103.592H501.758C501.777 103.837 501.787 104.195 501.787 104.666C501.787 108.401 500.919 111.843 499.184 114.993C497.449 118.143 495.091 120.642 492.111 122.49C489.131 124.338 485.859 125.262 482.294 125.262ZM508.531 84.9195H517.018V124.527H508.531V84.9195ZM525.199 84.9195H534.365L548.849 109.193V84.9195H557.336V124.527H548.17L533.686 100.253V124.527H525.199V84.9195Z" fill="white"/>
<path d="M118.487 119.798C114.866 119.798 111.565 118.873 108.585 117.025C105.624 115.158 103.285 112.649 101.568 109.5C99.871 106.35 99.0223 102.917 99.0223 99.2015C99.0223 95.2975 99.9372 91.7889 101.767 88.6769C103.615 85.5649 106.048 83.1412 109.066 81.4064C112.083 79.6524 115.28 78.7754 118.656 78.7754C121.523 78.7754 124.287 79.4445 126.946 80.7838C129.605 82.1231 131.972 84.1695 134.047 86.9229L126.465 90.9969C125.333 89.7335 124.088 88.7902 122.73 88.1676C121.372 87.5268 119.977 87.2061 118.543 87.2061C116.638 87.2061 114.837 87.7245 113.139 88.7619C111.461 89.7992 110.103 91.2422 109.066 93.0903C108.029 94.9389 107.51 97.0322 107.51 99.3709C107.51 101.559 108.009 103.568 109.009 105.397C110.009 107.227 111.357 108.67 113.055 109.726C114.752 110.782 116.6 111.31 118.6 111.31C120.41 111.31 122.136 110.82 123.777 109.839C125.437 108.858 126.823 107.406 127.936 105.482H122.617V98.1262H137.951C137.97 98.3715 137.979 98.7296 137.979 99.2015C137.979 102.936 137.111 106.378 135.377 109.528C133.641 112.677 131.284 115.176 128.304 117.025C125.324 118.873 122.052 119.798 118.487 119.798ZM160.001 79.4541C162.132 79.4541 164.084 80.0009 165.857 81.0948C167.63 82.1888 169.026 83.6601 170.044 85.5082C171.082 87.3568 171.6 89.3749 171.6 91.5628C171.6 94.0902 170.978 96.3535 169.733 98.3528C168.488 100.333 166.791 101.842 164.641 102.88L174.033 119.062H164.245L155.305 103.672H152.362V119.062H143.875V79.4541H160.001ZM158.983 95.1842C159.718 95.1842 160.397 94.9955 161.019 94.6182C161.661 94.2222 162.17 93.7032 162.547 93.0625C162.924 92.4019 163.113 91.6948 163.113 90.9402C163.113 90.1861 162.924 89.4882 162.547 88.8468C162.17 88.1868 161.661 87.6679 161.019 87.2906C160.397 86.8945 159.718 86.6968 158.983 86.6968H152.362V95.1842H158.983ZM200.494 79.4541L214.866 119.062H205.87L203.606 112.838H187.82L185.557 119.062H176.56L190.932 79.4541H200.494ZM200.494 104.35L195.685 91.2235L190.932 104.35H200.494ZM234.348 79.4541C236.479 79.4541 238.431 80.0105 240.204 81.1232C241.996 82.2172 243.411 83.6885 244.448 85.5365C245.485 87.3852 246.004 89.3936 246.004 91.5628C246.004 93.7508 245.467 95.7688 244.391 97.6169C243.335 99.4655 241.911 100.937 240.12 102.03C238.328 103.124 236.404 103.672 234.348 103.672H227.898V119.062H219.41V79.4541H234.348ZM233.386 95.1842C234.122 95.1842 234.801 94.9955 235.423 94.6182C236.064 94.2222 236.574 93.7032 236.951 93.0625C237.328 92.4019 237.516 91.6948 237.516 90.9402C237.516 90.1861 237.328 89.4882 236.951 88.8468C236.574 88.1868 236.064 87.6679 235.423 87.2906C234.801 86.8945 234.122 86.6968 233.386 86.6968H227.898V95.1842H233.386ZM281.858 79.4541V119.062H273.371V102.087H259.338V119.062H250.851V79.4541H259.338V93.5996H273.371V79.4541H281.858ZM290.048 79.4541H298.535V119.062H290.048V79.4541ZM323.929 119.798C320.402 119.798 317.149 118.873 314.169 117.025C311.189 115.176 308.822 112.687 307.068 109.556C305.332 106.406 304.465 102.974 304.465 99.2582C304.465 95.5235 305.332 92.0909 307.068 88.9601C308.822 85.8102 311.189 83.3208 314.169 81.4909C317.149 79.6428 320.402 78.7188 323.929 78.7188C327.06 78.7188 329.974 79.4445 332.672 80.8971C335.388 82.3492 337.66 84.3389 339.49 86.8662L331.908 90.9402C330.889 89.7709 329.692 88.8565 328.315 88.1959C326.938 87.5359 325.476 87.2061 323.929 87.2061C321.949 87.2061 320.11 87.7432 318.413 88.8185C316.734 89.8938 315.404 91.3555 314.424 93.2035C313.443 95.0522 312.952 97.0702 312.952 99.2582C312.952 101.427 313.443 103.436 314.424 105.284C315.423 107.133 316.762 108.603 318.441 109.697C320.12 110.773 321.949 111.31 323.929 111.31C325.476 111.31 326.938 110.98 328.315 110.32C329.692 109.641 330.889 108.707 331.908 107.519L339.49 111.65C337.66 114.177 335.388 116.167 332.672 117.619C329.974 119.071 327.06 119.798 323.929 119.798ZM372.446 79.4541C376.03 79.4541 379.33 80.3498 382.348 82.1418C385.384 83.9145 387.789 86.3195 389.562 89.3562C391.354 92.3736 392.25 95.6742 392.25 99.2582C392.25 102.842 391.354 106.152 389.562 109.188C387.789 112.206 385.384 114.611 382.348 116.402C379.33 118.176 376.03 119.062 372.446 119.062H359.319V79.4541H372.446ZM372.446 110.574C374.464 110.574 376.341 110.075 378.076 109.075C379.811 108.057 381.188 106.68 382.207 104.945C383.244 103.209 383.762 101.314 383.762 99.2582C383.762 97.2209 383.244 95.3349 382.207 93.5996C381.188 91.8648 379.811 90.4875 378.076 89.4694C376.341 88.4508 374.464 87.9415 372.446 87.9415H367.806V110.574H372.446ZM398.164 79.4541H423.4V87.9415H406.652V93.5996H419.553V102.087H406.652V110.574H423.4V119.062H398.164V79.4541ZM444.09 119.798C441.865 119.798 439.724 119.439 437.668 118.722C435.612 118.006 433.82 116.978 432.293 115.639C430.784 114.299 429.699 112.724 429.039 110.914L437.017 107.972C437.206 108.538 437.63 109.075 438.29 109.585C438.97 110.093 439.809 110.509 440.809 110.829C441.827 111.15 442.921 111.31 444.09 111.31C445.222 111.31 446.288 111.15 447.287 110.829C448.306 110.489 449.116 110.028 449.72 109.443C450.342 108.84 450.653 108.16 450.653 107.406C450.653 106.312 450.022 105.454 448.758 104.831C447.513 104.209 445.957 103.766 444.09 103.502C439.413 102.823 435.735 101.502 433.057 99.5409C430.379 97.5795 429.039 94.7689 429.039 91.1102C429.039 88.7148 429.728 86.5739 431.104 84.6879C432.482 82.8018 434.32 81.3402 436.621 80.3028C438.941 79.2468 441.431 78.7188 444.09 78.7188C446.335 78.7188 448.485 79.0768 450.541 79.7935C452.596 80.5102 454.378 81.5475 455.888 82.9055C457.415 84.2448 458.5 85.8289 459.141 87.6588L451.163 90.5442C450.974 89.9782 450.541 89.4502 449.861 88.9601C449.183 88.4508 448.324 88.0452 447.287 87.7432C446.25 87.4226 445.127 87.2622 443.921 87.2622C442.845 87.2622 441.818 87.4322 440.836 87.7715C439.856 88.1114 439.054 88.5828 438.432 89.1862C437.829 89.7709 437.527 90.4122 437.527 91.1102C437.527 92.0722 437.8 92.8075 438.347 93.3169C438.913 93.8075 439.611 94.1559 440.44 94.3638C441.27 94.5712 442.487 94.7882 444.09 95.0142C446.938 95.4295 449.484 96.1552 451.729 97.1926C453.992 98.2299 455.793 99.6072 457.132 101.323C458.472 103.039 459.141 105.067 459.141 107.406C459.141 109.801 458.452 111.942 457.076 113.828C455.718 115.714 453.888 117.185 451.587 118.241C449.286 119.279 446.787 119.798 444.09 119.798ZM482.294 119.798C478.673 119.798 475.372 118.873 472.392 117.025C469.431 115.158 467.092 112.649 465.376 109.5C463.678 106.35 462.829 102.917 462.829 99.2015C462.829 95.2975 463.744 91.7889 465.574 88.6769C467.422 85.5649 469.855 83.1412 472.873 81.4064C475.891 79.6524 479.088 78.7754 482.464 78.7754C485.33 78.7754 488.094 79.4445 490.753 80.7838C493.413 82.1231 495.78 84.1695 497.854 86.9229L490.272 90.9969C489.14 89.7335 487.896 88.7902 486.538 88.1676C485.18 87.5268 483.784 87.2061 482.35 87.2061C480.446 87.2061 478.645 87.7245 476.947 88.7619C475.269 89.7992 473.91 91.2422 472.873 93.0903C471.836 94.9389 471.317 97.0322 471.317 99.3709C471.317 101.559 471.817 103.568 472.816 105.397C473.816 107.227 475.164 108.67 476.862 109.726C478.56 110.782 480.408 111.31 482.407 111.31C484.218 111.31 485.943 110.82 487.585 109.839C489.244 108.858 490.63 107.406 491.743 105.482H486.424V98.1262H501.758C501.777 98.3715 501.787 98.7296 501.787 99.2015C501.787 102.936 500.919 106.378 499.184 109.528C497.449 112.677 495.091 115.176 492.111 117.025C489.131 118.873 485.859 119.798 482.294 119.798ZM508.531 79.4541H517.018V119.062H508.531V79.4541ZM525.199 79.4541H534.365L548.849 103.728V79.4541H557.336V119.062H548.17L533.686 94.7881V119.062H525.199V79.4541Z" fill="white"/>
<path opacity="0.24" d="M62.1399 143.414C65.7233 143.414 69.0239 144.309 72.0419 146.101C75.0786 147.874 77.483 150.279 79.2562 153.316C81.0477 156.333 81.9439 159.634 81.9439 163.217C81.9439 166.801 81.0477 170.111 79.2562 173.147C77.483 176.165 75.0786 178.57 72.0419 180.362C69.0239 182.135 65.7233 183.021 62.1399 183.021H49.0128V143.414H62.1399ZM62.1399 174.534C64.1579 174.534 66.0348 174.034 67.7696 173.034C69.5049 172.016 70.8816 170.639 71.9003 168.904C72.9376 167.169 73.4566 165.273 73.4566 163.217C73.4566 161.18 72.9376 159.294 71.9003 157.559C70.8816 155.824 69.5049 154.447 67.7696 153.428C66.0348 152.41 64.1579 151.901 62.1399 151.901H57.4999V174.534H62.1399ZM87.858 143.414H113.093V151.901H96.3453V157.559H109.246V166.046H96.3453V174.534H113.093V183.021H87.858V143.414ZM133.784 183.757C131.558 183.757 129.418 183.398 127.362 182.682C125.306 181.965 123.514 180.937 121.986 179.598C120.478 178.259 119.393 176.684 118.733 174.873L126.711 171.931C126.9 172.497 127.324 173.034 127.984 173.544C128.663 174.053 129.502 174.468 130.502 174.788C131.52 175.109 132.614 175.269 133.784 175.269C134.916 175.269 135.981 175.109 136.981 174.788C137.999 174.449 138.81 173.987 139.414 173.402C140.036 172.799 140.348 172.12 140.348 171.365C140.348 170.271 139.715 169.413 138.452 168.791C137.207 168.168 135.651 167.725 133.784 167.461C129.106 166.782 125.428 165.462 122.75 163.5C120.072 161.538 118.733 158.728 118.733 155.07C118.733 152.674 119.421 150.533 120.798 148.647C122.175 146.761 124.014 145.3 126.315 144.262C128.635 143.206 131.124 142.678 133.784 142.678C136.028 142.678 138.178 143.036 140.234 143.753C142.29 144.47 144.073 145.507 145.581 146.865C147.109 148.204 148.194 149.788 148.835 151.618L140.857 154.504C140.668 153.938 140.234 153.41 139.555 152.919C138.876 152.41 138.018 152.005 136.981 151.703C135.943 151.382 134.821 151.222 133.614 151.222C132.539 151.222 131.511 151.392 130.531 151.731C129.55 152.07 128.748 152.542 128.126 153.146C127.522 153.73 127.22 154.372 127.22 155.07C127.22 156.031 127.494 156.767 128.041 157.276C128.607 157.766 129.305 158.115 130.134 158.323C130.964 158.531 132.181 158.747 133.784 158.974C136.632 159.388 139.178 160.115 141.422 161.152C143.686 162.189 145.487 163.566 146.826 165.283C148.165 166.999 148.835 169.026 148.835 171.365C148.835 173.76 148.147 175.901 146.769 177.787C145.411 179.673 143.582 181.145 141.281 182.201C138.98 183.238 136.481 183.757 133.784 183.757ZM155.898 143.414H164.385V183.021H155.898V143.414ZM189.78 183.757C186.159 183.757 182.858 182.833 179.878 180.984C176.917 179.117 174.578 176.608 172.862 173.459C171.165 170.309 170.315 166.876 170.315 163.161C170.315 159.256 171.23 155.748 173.06 152.636C174.908 149.524 177.341 147.101 180.359 145.365C183.377 143.611 186.574 142.734 189.95 142.734C192.817 142.734 195.58 143.404 198.239 144.743C200.899 146.082 203.266 148.129 205.34 150.882L197.758 154.956C196.627 153.692 195.382 152.75 194.024 152.127C192.666 151.486 191.27 151.165 189.837 151.165C187.932 151.165 186.13 151.684 184.433 152.721C182.754 153.759 181.396 155.202 180.359 157.05C179.322 158.898 178.803 160.992 178.803 163.33C178.803 165.518 179.303 167.527 180.302 169.357C181.302 171.186 182.651 172.629 184.348 173.685C186.046 174.741 187.894 175.269 189.893 175.269C191.704 175.269 193.43 174.779 195.07 173.798C196.73 172.818 198.117 171.365 199.23 169.441H193.911V162.086H209.244C209.264 162.331 209.273 162.689 209.273 163.161C209.273 166.895 208.405 170.337 206.67 173.487C204.935 176.637 202.577 179.136 199.597 180.984C196.617 182.833 193.345 183.757 189.78 183.757ZM215.168 143.414H224.335L238.82 167.687V143.414H247.307V183.021H238.141L223.656 158.747V183.021H215.168V143.414Z" fill="white"/>
<path d="M61.6557 137.866C65.2396 137.866 68.5402 138.762 71.5577 140.554C74.5943 142.327 76.9993 144.732 78.772 147.768C80.564 150.786 81.4597 154.086 81.4597 157.67C81.4597 161.254 80.564 164.563 78.772 167.6C76.9993 170.618 74.5943 173.022 71.5577 174.814C68.5402 176.587 65.2396 177.474 61.6557 177.474H48.5287V137.866H61.6557ZM61.6557 168.986C63.6742 168.986 65.5506 168.487 67.2859 167.487C69.0212 166.469 70.3979 165.092 71.4166 163.357C72.4539 161.621 72.9723 159.726 72.9723 157.67C72.9723 155.633 72.4539 153.747 71.4166 152.012C70.3979 150.276 69.0212 148.9 67.2859 147.881C65.5506 146.863 63.6742 146.354 61.6557 146.354H57.0162V168.986H61.6557ZM87.3738 137.866H112.61V146.354H95.8611V152.012H108.762V160.499H95.8611V168.986H112.61V177.474H87.3738V137.866ZM133.3 178.21C131.074 178.21 128.934 177.851 126.878 177.134C124.822 176.418 123.03 175.389 121.502 174.051C119.994 172.711 118.909 171.136 118.249 169.326L126.227 166.384C126.416 166.95 126.84 167.487 127.5 167.996C128.179 168.505 129.019 168.921 130.018 169.241C131.037 169.562 132.131 169.722 133.3 169.722C134.431 169.722 135.497 169.562 136.497 169.241C137.515 168.901 138.326 168.44 138.93 167.855C139.552 167.251 139.863 166.572 139.863 165.818C139.863 164.724 139.232 163.866 137.968 163.243C136.723 162.621 135.167 162.178 133.3 161.914C128.623 161.235 124.945 159.914 122.266 157.953C119.588 155.992 118.249 153.181 118.249 149.522C118.249 147.127 118.938 144.986 120.314 143.1C121.691 141.214 123.53 139.752 125.831 138.715C128.151 137.659 130.641 137.131 133.3 137.131C135.544 137.131 137.695 137.489 139.75 138.206C141.806 138.922 143.588 139.96 145.097 141.318C146.625 142.657 147.709 144.241 148.351 146.07L140.373 148.956C140.184 148.39 139.75 147.862 139.071 147.372C138.392 146.863 137.534 146.457 136.497 146.155C135.46 145.835 134.337 145.674 133.13 145.674C132.055 145.674 131.027 145.844 130.046 146.184C129.066 146.523 128.264 146.995 127.641 147.598C127.038 148.183 126.736 148.824 126.736 149.522C126.736 150.484 127.01 151.22 127.557 151.729C128.122 152.219 128.82 152.568 129.65 152.775C130.48 152.983 131.697 153.2 133.3 153.426C136.148 153.841 138.694 154.567 140.939 155.605C143.202 156.642 145.003 158.019 146.342 159.735C147.681 161.451 148.351 163.479 148.351 165.818C148.351 168.213 147.662 170.354 146.286 172.24C144.928 174.126 143.098 175.597 140.797 176.653C138.496 177.691 135.997 178.21 133.3 178.21ZM155.414 137.866H163.902V177.474H155.414V137.866ZM189.296 178.21C185.675 178.21 182.374 177.285 179.394 175.437C176.433 173.57 174.094 171.061 172.378 167.912C170.68 164.762 169.832 161.329 169.832 157.614C169.832 153.709 170.746 150.201 172.576 147.089C174.424 143.977 176.857 141.553 179.875 139.818C182.893 138.064 186.09 137.187 189.466 137.187C192.333 137.187 195.096 137.857 197.755 139.196C200.414 140.535 202.781 142.582 204.856 145.335L197.274 149.409C196.143 148.146 194.898 147.202 193.54 146.58C192.182 145.938 190.786 145.618 189.353 145.618C187.448 145.618 185.646 146.137 183.949 147.174C182.27 148.211 180.912 149.654 179.875 151.502C178.838 153.351 178.319 155.444 178.319 157.783C178.319 159.971 178.819 161.98 179.818 163.809C180.818 165.639 182.167 167.082 183.864 168.138C185.562 169.194 187.41 169.722 189.409 169.722C191.22 169.722 192.946 169.232 194.586 168.251C196.246 167.27 197.633 165.818 198.745 163.894H193.427V156.538H208.761C208.779 156.784 208.789 157.142 208.789 157.614C208.789 161.348 207.921 164.79 206.186 167.94C204.451 171.089 202.093 173.588 199.113 175.437C196.133 177.285 192.861 178.21 189.296 178.21ZM214.684 137.866H223.851L238.336 162.14V137.866H246.823V177.474H237.657L223.172 153.2V177.474H214.684V137.866Z" fill="white"/>
<g opacity="0.7">
<mask id="mask1_1_279" style="mask-type:alpha" maskUnits="userSpaceOnUse" x="54" y="219" width="280" height="187">
<g opacity="0.7">
<path opacity="0.7" d="M54.4092 219.408L54.4092 405.527H333.589V219.408L54.4092 219.408Z" fill="#181A3F"/>
</g>
</mask>
<g mask="url(#mask1_1_279)">
<g opacity="0.7">
<path opacity="0.3" d="M54.4081 219.408L54.4081 312.489H147.468V219.408H54.4081Z" fill="white"/>
<path opacity="0.72" d="M54.4081 312.489L147.468 219.408V312.489H54.4081Z" fill="white"/>
<path opacity="0.6" d="M147.47 312.489H240.529V405.548L147.47 312.489Z" fill="white"/>
<path opacity="0.2" d="M240.528 219.408V312.489H333.588V219.408H240.528Z" fill="white"/>
<mask id="mask2_1_279" style="mask-type:alpha" maskUnits="userSpaceOnUse" x="240" y="219" width="94" height="94">
<g opacity="0.7">
<path opacity="0.7" d="M240.527 219.408V312.489H333.587V219.408H240.527Z" fill="#FF7549"/>
</g>
</mask>
<g mask="url(#mask2_1_279)">
<g opacity="0.7">
<path opacity="0.72" d="M240.526 206.59C240.526 148.104 287.939 100.692 346.425 100.692C404.911 100.692 452.323 148.104 452.323 206.59C452.323 265.076 404.911 312.489 346.425 312.489C287.939 312.489 240.526 265.076 240.526 206.59Z" fill="white"/>
</g>
<path opacity="0.4" d="M147.47 219.408V312.489H240.53V219.408H147.47Z" fill="white"/>
<path opacity="0.38" d="M240.528 312.488V405.548H333.588V312.488H240.528Z" fill="white"/>
</g>
</g>
</g>
</g>
</g>
</g>
<defs>
<filter id="filter0_i_1_279" x="54.4098" y="42.6641" width="279.179" height="370.143" filterUnits="userSpaceOnUse" color-interpolation-filters="sRGB">
<feFlood flood-opacity="0" result="BackgroundImageFix"/>
<feBlend mode="normal" in="SourceGraphic" in2="BackgroundImageFix" result="shape"/>
<feColorMatrix in="SourceAlpha" type="matrix" values="0 0 0 0 0 0 0 0 0 0 0 0 0 0 0 0 0 0 127 0" result="hardAlpha"/>
<feOffset dy="24.0604"/>
<feGaussianBlur stdDeviation="37.8092"/>
<feComposite in2="hardAlpha" operator="arithmetic" k2="-1" k3="1"/>
<feColorMatrix type="matrix" values="0 0 0 0 0 0 0 0 0 0 0 0 0 0 0 0 0 0 0.17 0"/>
<feBlend mode="normal" in2="shape" result="effect1_innerShadow_1_279"/>
</filter>
<clipPath id="clip0_1_279">
<rect width="388" height="388" fill="white"/>
</clipPath>
</defs>
</svg>
